<svg xmlns="http://www.w3.org/2000/svg" xmlns:xlink="http://www.w3.org/1999/xlink" width="1024" zoomAndPan="magnify" viewBox="0 0 768 767.999994" height="1024" preserveAspectRatio="xMidYMid meet" version="1.0"><defs><clipPath id="818f550605"><path d="M 0 0.28125 L 768 0.28125 L 768 768 L 0 768 Z M 0 0.28125 " clip-rule="nonzero"/></clipPath></defs><rect x="-76.8" width="921.6" fill="#ffffff" y="-76.799999" height="921.599993" fill-opacity="1"/><rect x="-76.8" width="921.6" fill="#ffffff" y="-76.799999" height="921.599993" fill-opacity="1"/><g clip-path="url(#818f550605)"><path fill="#e9eaeb" d="M 767.726562 384.105469 C 767.726562 596.085938 595.882812 767.929688 383.90625 767.929688 C 171.925781 767.929688 0.0820312 596.085938 0.0820312 384.105469 C 0.0820312 172.125 171.925781 0.28125 383.90625 0.28125 C 595.882812 0.28125 767.726562 172.125 767.726562 384.105469 " fill-opacity="1" fill-rule="nonzero"/></g><path fill="#b5531f" d="M 579.171875 331.316406 C 575.371094 317.6875 566.875 313.386719 558.460938 313.066406 C 558.625 312.460938 558.773438 311.867188 558.9375 311.265625 C 559.296875 309.957031 559.652344 308.65625 559.988281 307.355469 C 560.203125 306.539062 560.402344 305.722656 560.613281 304.914062 C 560.898438 303.769531 561.183594 302.628906 561.457031 301.492188 C 561.648438 300.703125 561.835938 299.925781 562.019531 299.152344 C 562.390625 297.542969 562.75 295.949219 563.101562 294.367188 C 563.242188 293.695312 563.378906 293.03125 563.523438 292.359375 C 563.808594 291 564.085938 289.640625 564.34375 288.296875 C 564.488281 287.574219 564.617188 286.867188 564.75 286.144531 C 564.964844 284.972656 565.171875 283.816406 565.375 282.65625 C 565.488281 281.976562 565.609375 281.304688 565.71875 280.632812 C 565.988281 278.960938 566.246094 277.292969 566.476562 275.648438 C 566.523438 275.296875 566.566406 274.949219 566.617188 274.597656 C 566.816406 273.132812 566.996094 271.671875 567.160156 270.230469 C 567.226562 269.636719 567.289062 269.042969 567.347656 268.457031 C 567.46875 267.261719 567.582031 266.074219 567.683594 264.902344 C 567.734375 264.351562 567.777344 263.792969 567.820312 263.242188 C 567.941406 261.589844 568.046875 259.945312 568.121094 258.339844 C 568.125 258.222656 568.125 258.117188 568.132812 258.003906 C 568.199219 256.480469 568.226562 254.984375 568.242188 253.503906 C 568.25 253.011719 568.242188 252.523438 568.242188 252.039062 C 568.242188 250.894531 568.226562 249.757812 568.199219 248.636719 C 568.183594 248.171875 568.167969 247.699219 568.15625 247.242188 C 568.089844 245.71875 568.011719 244.214844 567.890625 242.742188 C 565.480469 213.5 517.082031 154.378906 461.578125 125.378906 C 423.875 105.671875 360.488281 96.152344 321.546875 106.34375 C 294.589844 113.402344 269.597656 130.496094 249.679688 161.644531 C 215.914062 214.433594 208.628906 383.183594 207.371094 395.660156 C 203.171875 437.304688 271.507812 538.367188 306.367188 547.863281 C 306.632812 547.941406 306.917969 547.984375 307.1875 548.054688 C 303.414062 583.527344 296.835938 615.546875 275.589844 626.929688 C 240.046875 662.089844 285.960938 743.738281 386.601562 719.84375 C 386.585938 719.851562 386.570312 719.851562 386.558594 719.855469 C 386.695312 719.828125 386.816406 719.792969 386.949219 719.765625 C 420.742188 711.664062 548.691406 679.535156 533.304688 597.570312 C 533.304688 597.570312 517.4375 571.367188 512.898438 562.941406 C 512.796875 562.75 512.691406 562.5 512.574219 562.214844 C 512.546875 562.164062 512.53125 562.105469 512.503906 562.050781 C 512.398438 561.753906 512.28125 561.433594 512.160156 561.0625 C 512.144531 560.996094 512.117188 560.917969 512.097656 560.847656 C 511.988281 560.484375 511.867188 560.089844 511.753906 559.660156 C 511.738281 559.609375 511.722656 559.5625 511.710938 559.511719 C 511.582031 559.046875 511.453125 558.523438 511.324219 557.980469 C 511.296875 557.867188 511.265625 557.75 511.238281 557.628906 C 511.101562 557.074219 510.964844 556.484375 510.832031 555.855469 C 510.808594 555.777344 510.796875 555.691406 510.78125 555.613281 C 510.644531 555.007812 510.507812 554.363281 510.378906 553.699219 C 510.351562 553.589844 510.332031 553.488281 510.316406 553.382812 C 510.171875 552.667969 510.023438 551.917969 509.871094 551.136719 C 509.851562 550.988281 509.816406 550.832031 509.785156 550.671875 C 509.636719 549.859375 509.488281 549.027344 509.335938 548.148438 C 509.328125 548.140625 509.328125 548.121094 509.328125 548.105469 C 509.171875 547.226562 509.015625 546.304688 508.855469 545.359375 C 508.835938 545.222656 508.8125 545.089844 508.792969 544.945312 C 508.636719 544 508.476562 543.027344 508.328125 542.035156 C 508.300781 541.886719 508.277344 541.742188 508.257812 541.597656 C 508.097656 540.570312 507.941406 539.527344 507.785156 538.445312 C 507.785156 538.429688 507.777344 538.417969 507.777344 538.410156 C 507.621094 537.316406 507.457031 536.1875 507.296875 535.035156 C 507.277344 534.878906 507.253906 534.714844 507.234375 534.554688 C 507.070312 533.40625 506.914062 532.230469 506.753906 531.03125 C 506.746094 530.953125 506.742188 530.875 506.734375 530.800781 C 506.578125 529.585938 506.417969 528.355469 506.261719 527.097656 C 506.253906 527.039062 506.246094 526.984375 506.242188 526.925781 C 506.082031 525.652344 505.925781 524.351562 505.777344 523.03125 C 505.761719 522.902344 505.746094 522.773438 505.734375 522.636719 C 505.425781 519.949219 505.125 517.171875 504.832031 514.328125 C 504.824219 514.25 504.816406 514.164062 504.808594 514.085938 C 504.667969 512.675781 504.53125 511.246094 504.386719 509.808594 C 504.382812 509.695312 504.375 509.585938 504.359375 509.480469 C 504.089844 506.546875 503.832031 503.566406 503.59375 500.542969 C 503.585938 500.441406 503.582031 500.347656 503.566406 500.25 C 503.453125 498.71875 503.335938 497.179688 503.230469 495.628906 C 503.222656 495.613281 503.222656 495.59375 503.222656 495.578125 C 503 492.441406 502.800781 489.273438 502.628906 486.082031 C 502.621094 485.984375 502.621094 485.882812 502.613281 485.785156 C 502.445312 482.59375 502.300781 479.382812 502.179688 476.171875 C 502.179688 476.144531 502.179688 476.125 502.179688 476.101562 C 502.121094 474.515625 502.070312 472.925781 502.027344 471.339844 C 502.027344 471.238281 502.027344 471.140625 502.023438 471.039062 C 501.941406 467.871094 501.894531 464.703125 501.878906 461.558594 C 501.878906 461.472656 501.878906 461.394531 501.878906 461.316406 C 501.871094 459.75 501.871094 458.183594 501.886719 456.632812 C 501.886719 456.566406 501.886719 456.503906 501.886719 456.4375 C 501.914062 453.328125 501.972656 450.238281 502.078125 447.199219 C 502.085938 447.085938 502.085938 446.972656 502.09375 446.855469 C 502.144531 445.339844 502.207031 443.839844 502.277344 442.351562 C 502.277344 442.351562 502.277344 442.351562 502.277344 442.34375 C 502.550781 441.886719 502.824219 441.414062 503.09375 440.949219 C 503.757812 439.820312 504.425781 438.691406 505.089844 437.539062 C 505.519531 436.804688 505.941406 436.058594 506.367188 435.308594 C 506.992188 434.222656 507.613281 433.121094 508.234375 432.011719 C 508.671875 431.242188 509.109375 430.46875 509.542969 429.683594 C 510.164062 428.558594 510.789062 427.429688 511.402344 426.292969 C 511.824219 425.527344 512.238281 424.769531 512.660156 423.996094 C 513.363281 422.703125 514.046875 421.410156 514.742188 420.101562 C 515.078125 419.472656 515.414062 418.855469 515.742188 418.21875 C 516.722656 416.375 517.6875 414.5 518.652344 412.621094 C 519.082031 411.785156 519.503906 410.941406 519.933594 410.097656 C 520.5 408.980469 521.0625 407.867188 521.621094 406.742188 C 522.09375 405.792969 522.566406 404.839844 523.035156 403.882812 C 523.542969 402.855469 524.050781 401.816406 524.550781 400.78125 C 525.039062 399.785156 525.519531 398.792969 525.988281 397.792969 C 526.484375 396.777344 526.96875 395.753906 527.449219 394.722656 C 527.925781 393.714844 528.40625 392.707031 528.871094 391.691406 C 529.007812 391.414062 529.136719 391.132812 529.265625 390.855469 C 530.851562 391.613281 532.726562 392.171875 534.96875 392.328125 C 545.46875 393.066406 556.480469 382.230469 562.25 374.375 C 568.011719 366.515625 585.910156 355.441406 579.171875 331.316406 Z M 386.558594 719.855469 C 348.582031 735.101562 315.125 737.003906 386.558594 719.855469 " fill-opacity="1" fill-rule="nonzero"/><path fill="#f4efe6" d="M 287.519531 324.734375 C 283.207031 313.859375 280.269531 303.683594 259.773438 303.335938 C 246.738281 304.292969 226.03125 318.238281 226.03125 320.339844 C 234.355469 317.527344 282.3125 324.734375 287.519531 324.734375 Z M 463.214844 340.765625 C 458.082031 329.890625 454.59375 319.722656 430.230469 319.367188 C 414.738281 320.332031 390.105469 334.273438 390.105469 336.375 C 400 333.566406 457.023438 340.765625 463.214844 340.765625 Z M 411.46875 441.402344 C 421.136719 434.371094 401.160156 471.996094 346.335938 478.191406 C 291.515625 484.382812 289.785156 452.605469 306.210938 452.691406 C 322.640625 452.777344 385.601562 460.199219 411.46875 441.402344 " fill-opacity="1" fill-rule="nonzero"/><path fill="#fbc150" d="M 558.238281 621.824219 C 558.230469 621.824219 558.230469 621.824219 558.230469 621.824219 C 543.386719 607.195312 534.0625 598.09375 533.3125 597.566406 C 533.320312 597.570312 533.324219 597.585938 533.332031 597.59375 C 533.324219 597.59375 533.3125 597.578125 533.304688 597.570312 C 534.570312 599.703125 535.097656 603.726562 534.597656 609 C 531.78125 638.773438 495.949219 708.453125 371.128906 702.566406 C 322.882812 700.285156 297.957031 687.722656 285.410156 673.480469 C 279.082031 666.285156 275.898438 658.679688 274.460938 651.730469 C 271.757812 638.65625 275.242188 627.976562 275.5625 627.011719 C 275.5625 627.015625 275.546875 627.023438 275.546875 627.023438 C 275.546875 627.015625 275.546875 627.011719 275.546875 627.011719 C 275.441406 627.058594 274.484375 627.738281 272.988281 628.753906 C 272.738281 628.925781 272.480469 629.121094 272.203125 629.289062 C 270.652344 630.355469 268.707031 631.707031 266.566406 633.144531 C 266.058594 633.515625 265.523438 633.882812 264.957031 634.273438 C 264.566406 634.523438 264.171875 634.8125 263.777344 635.089844 C 260.648438 637.234375 257.414062 639.457031 254.878906 641.203125 C 253.613281 642.074219 252.511719 642.832031 251.695312 643.398438 C 251.160156 643.734375 250.621094 644.136719 250.058594 644.5 L 250.058594 644.527344 C 227.5 651.140625 183.644531 665.058594 139.304688 679.929688 C 205.726562 734.886719 290.957031 767.921875 383.914062 767.921875 C 485.367188 767.921875 577.644531 728.574219 646.257812 664.300781 C 615.554688 650.296875 584.742188 636.441406 558.238281 621.824219 " fill-opacity="1" fill-rule="nonzero"/><path fill="#1c1818" d="M 484.546875 462.367188 C 478.652344 469.109375 472.539062 475.660156 466.335938 482.117188 C 453.863281 494.941406 441.09375 507.578125 427.144531 518.726562 C 423.660156 521.507812 420.101562 524.203125 416.351562 526.554688 L 413.523438 528.277344 C 412.5625 528.851562 411.546875 529.316406 410.570312 529.84375 C 408.609375 530.894531 406.570312 531.804688 404.5625 532.761719 C 396.453125 536.488281 387.988281 539.398438 379.4375 541.949219 C 370.863281 544.472656 362.117188 546.433594 353.28125 547.820312 C 344.457031 549.269531 335.527344 550.101562 326.558594 550.34375 C 344.5 550.609375 362.476562 548.054688 379.816406 543.308594 C 388.496094 540.949219 397.019531 537.960938 405.25 534.285156 C 407.285156 533.324219 409.351562 532.417969 411.347656 531.359375 C 412.34375 530.835938 413.371094 530.371094 414.351562 529.792969 L 417.277344 528.042969 C 421.128906 525.652344 424.746094 522.949219 428.28125 520.15625 C 442.25 508.792969 455.058594 496.160156 467.347656 483.082031 C 479.476562 469.875 491.566406 456.480469 501.371094 441.429688 C 496.25 448.792969 490.453125 455.636719 484.546875 462.367188 Z M 318.773438 323.257812 C 318.488281 321.746094 318.128906 320.253906 317.8125 318.757812 C 317.40625 317.285156 316.933594 315.832031 316.464844 314.390625 C 317.441406 320.394531 317.765625 326.421875 317.234375 332.359375 C 316.675781 338.285156 315.441406 344.128906 313.429688 349.71875 C 311.484375 355.324219 308.785156 360.660156 305.636719 365.734375 C 304.070312 368.289062 302.3125 370.71875 300.460938 373.09375 C 299.523438 374.265625 298.617188 375.476562 297.644531 376.632812 C 296.628906 377.757812 295.632812 378.898438 294.65625 380.074219 C 297.070312 378.214844 299.324219 376.152344 301.503906 373.996094 C 303.597656 371.769531 305.59375 369.425781 307.433594 366.957031 C 311.101562 362.011719 314.003906 356.476562 316.082031 350.648438 C 318.113281 344.808594 319.335938 338.652344 319.394531 332.464844 C 319.429688 330.929688 319.300781 329.375 319.257812 327.847656 C 319.152344 326.308594 318.945312 324.777344 318.773438 323.257812 Z M 568.964844 331.363281 C 566.855469 328.554688 564.015625 326.253906 560.746094 325.085938 C 563.835938 326.632812 566.4375 329.003906 568.226562 331.871094 C 570.101562 334.6875 571.214844 337.964844 571.789062 341.253906 C 572.308594 344.550781 572.066406 347.925781 570.785156 350.964844 C 569.492188 353.996094 567.324219 356.605469 564.878906 358.957031 C 563.691406 360.171875 562.421875 361.316406 561.191406 362.617188 C 560.574219 363.296875 560.003906 364 559.496094 364.636719 C 558.953125 365.277344 558.386719 365.90625 557.816406 366.523438 C 555.484375 368.960938 552.808594 371.085938 549.871094 372.664062 C 548.390625 373.4375 546.824219 374.03125 545.195312 374.296875 C 543.578125 374.59375 541.898438 374.382812 540.183594 374.203125 C 538.511719 374.003906 536.785156 373.757812 535.378906 372.878906 C 533.949219 371.992188 533.441406 370.183594 533.304688 368.488281 C 533.296875 369.347656 533.347656 370.226562 533.597656 371.078125 C 533.847656 371.921875 534.375 372.714844 535.097656 373.265625 C 536.570312 374.359375 538.351562 374.738281 540.054688 375.089844 C 541.75 375.359375 543.53125 375.667969 545.351562 375.4375 C 547.148438 375.230469 548.871094 374.667969 550.488281 373.921875 C 553.738281 372.4375 556.523438 370.164062 559.003906 367.679688 C 559.617188 367.050781 560.21875 366.402344 560.796875 365.734375 C 561.375 365.035156 561.90625 364.40625 562.457031 363.820312 C 563.621094 362.625 564.929688 361.480469 566.175781 360.25 C 568.648438 357.800781 570.957031 354.953125 572.324219 351.601562 C 573.652344 348.238281 573.953125 344.472656 573.167969 340.996094 C 572.394531 337.542969 571.066406 334.210938 568.964844 331.363281 Z M 287.519531 394.09375 C 286.753906 396.625 290.449219 402.710938 291.773438 404.15625 C 294.273438 406.886719 302.089844 409.265625 306.367188 409.265625 C 299.800781 408.128906 289.105469 399.292969 287.519531 394.09375 Z M 354.816406 403.082031 C 354.488281 403.726562 354.003906 404.597656 353.042969 405.449219 C 352.058594 406.351562 350.484375 407.792969 348.867188 408.445312 C 345.40625 404.589844 340.816406 403.898438 335.296875 404.183594 C 329.707031 404.449219 325.566406 410.890625 325.867188 411.417969 C 329.710938 412.121094 340.703125 412.726562 344.355469 411.699219 C 348.015625 410.710938 351.386719 408.910156 353.117188 406.902344 C 353.996094 405.914062 354.867188 403.832031 355.058594 403.117188 C 355.945312 399.894531 355.152344 402.425781 354.816406 403.082031 Z M 393.871094 264.222656 C 393.871094 264.222656 384.839844 266.738281 389.023438 301.925781 C 425.632812 288.578125 484.53125 308.691406 484.53125 308.691406 C 484.53125 308.691406 496.402344 295.289062 491.71875 290.523438 C 474.097656 272.574219 412.648438 251.988281 393.871094 264.222656 Z M 451.269531 322.0625 C 447.992188 319.929688 444.273438 318.371094 440.398438 317.75 C 438.46875 317.40625 436.515625 317.277344 434.578125 317.355469 C 432.65625 317.398438 430.832031 317.472656 428.964844 317.644531 C 421.558594 318.414062 414.308594 320.382812 407.664062 323.550781 C 401.050781 326.703125 394.824219 330.863281 390.113281 336.375 C 395.765625 331.914062 402.1875 328.691406 408.816406 326.351562 C 414.59375 324.320312 420.585938 323.019531 426.605469 322.546875 C 421.152344 325.550781 418.503906 331.613281 418.511719 337.027344 C 428.164062 337.507812 441.980469 339.058594 453.5 340.179688 C 453.5 335.449219 452.398438 330.90625 449.675781 327.390625 C 454.878906 330.597656 459.425781 335.109375 463.214844 340.765625 C 462.359375 333.375 457.738281 326.417969 451.269531 322.0625 Z M 307.125 267.855469 C 306.136719 233.148438 298.351562 230.945312 298.351562 230.945312 C 285.25 222.148438 255.046875 231.558594 236.144531 244.628906 C 236.144531 244.625 236.144531 244.625 236.144531 244.617188 C 235.957031 244.746094 235.785156 244.875 235.601562 245.003906 C 235.269531 245.230469 234.949219 245.46875 234.628906 245.695312 C 234.226562 245.988281 233.832031 246.28125 233.441406 246.574219 C 233.132812 246.8125 232.824219 247.046875 232.523438 247.285156 C 232.140625 247.582031 231.765625 247.882812 231.394531 248.183594 C 231.109375 248.421875 230.824219 248.65625 230.542969 248.890625 C 230.179688 249.199219 229.828125 249.507812 229.480469 249.816406 C 229.214844 250.050781 228.949219 250.285156 228.691406 250.523438 C 228.347656 250.835938 228.019531 251.152344 227.699219 251.464844 C 227.457031 251.703125 227.21875 251.929688 226.984375 252.160156 C 226.660156 252.488281 226.363281 252.816406 226.054688 253.148438 C 225.847656 253.367188 225.632812 253.589844 225.4375 253.820312 C 225.109375 254.183594 224.808594 254.546875 224.507812 254.921875 C 224.359375 255.097656 224.195312 255.285156 224.050781 255.464844 C 223.621094 256.015625 223.214844 256.570312 222.84375 257.117188 C 219.574219 261.949219 225.640625 277.421875 225.640625 277.421875 C 225.640625 277.421875 275.175781 255.851562 307.125 267.855469 Z M 287.519531 324.734375 C 287.238281 318.171875 284.144531 311.601562 278.894531 306.976562 C 276.242188 304.707031 273.066406 302.863281 269.59375 302.019531 C 266.132812 300.996094 262.464844 301.339844 259.230469 301.535156 C 252.589844 302.285156 246.160156 304.328125 240.484375 307.597656 C 234.820312 310.828125 229.6875 315.0625 226.03125 320.339844 C 230.738281 316.035156 236.148438 312.753906 241.84375 310.351562 C 246.441406 308.410156 251.25 307.140625 256.105469 306.597656 C 250.742188 309.621094 248.140625 315.625 248.140625 320.996094 C 257.800781 321.476562 271.609375 323.027344 283.136719 324.148438 C 283.136719 321.867188 282.871094 319.628906 282.296875 317.527344 C 284.144531 319.722656 285.875 322.140625 287.519531 324.734375 Z M 601.160156 203.882812 C 601.140625 203.929688 601.089844 203.964844 601.066406 204.015625 C 601.546875 216.496094 600.125 231.109375 595.375 248.097656 C 584.191406 288.078125 578.007812 307.53125 569.097656 315.125 C 562.984375 320.339844 554.453125 309.632812 548.964844 311.464844 C 556.285156 293.160156 537.980469 265.703125 520.878906 260.527344 C 534.183594 230.773438 520.863281 201.722656 513.625 187.257812 C 509.265625 179.46875 505.238281 164.519531 486.457031 152.378906 C 402.425781 130.039062 298.453125 127.59375 274.070312 137.054688 C 269.648438 140.957031 265.800781 144.011719 262.597656 146.175781 C 256.957031 151.28125 250.535156 158.390625 245.988281 168.078125 C 235.742188 107.34375 288.355469 79.867188 297.226562 93.558594 C 291.371094 55.234375 357.898438 14.574219 362.289062 59.078125 C 376.066406 25.578125 431.242188 3.292969 436.003906 48.425781 C 448.789062 19.589844 510.238281 23.199219 502.699219 56.578125 C 525.847656 29.675781 573.332031 62.082031 548.597656 92.742188 C 548.632812 92.757812 548.664062 92.773438 548.699219 92.785156 C 579.523438 73.359375 600.554688 117.546875 579.316406 132.484375 C 579.425781 132.769531 579.523438 133.058594 579.632812 133.34375 C 602.90625 139.734375 625.1875 181.042969 601.160156 203.882812 " fill-opacity="1" fill-rule="nonzero"/></svg>